# xmcd CD database file
#
# Track frame offsets:
#	150
#	45987
#	78070
#	102757
#	135510
#	159400
#	183307
#	211525
#
# Disc length: 3128 seconds
#
# Revision: 0
# Processed by: cddbd v1.4PL0 Copyright (c) Steve Scherf et al.
# Submitted via: CDex 1.51
#
DISCID=4f0c3608
DTITLE=Various, Americans In Europe - Americans In Europe
DYEAR=1963
DGENRE=Jazz
TTITLE0=All The Things You Are_Don Byas, Bud Powell Quintet
TTITLE1=I Remember Clifford_Don Byas, Bud Powell Quintet
TTITLE2=I Can't Get Started_Don Byas, Bud Powell Quintet
TTITLE3='Round Midnight_Don Byas, Bud Powell Quintet
TTITLE4=No Smokin'_Kenny Clark Trio
TTITLE5=Low Life__Kenny Clark Trio
TTITLE6=Freeway_Bill Smith Quintet
TTITLE7=Pyramid_Bill Smith Quintet
EXTD=YEAR: 1963
EXTT0=
EXTT1=
EXTT2=
EXTT3=
EXTT4=
EXTT5=
EXTT6=
EXTT7=
PLAYORDER=
